:FULLY-SPECIFIED
:FORCE-ALL-JOINTS-BE-3DOF
:DEGREES
306
root 9.13628 15.4598 -23.7347 21.0847 62.7167 25.8579
lfemur -15.1745 16.9199 -18.6775
ltibia 52.338 0 0
lfoot -19.9938 -28.5149 0
ltoes 62.6691 0 0
rfemur -51.2194 -13.4957 29.7334
rtibia 54.7949 0 0
rfoot 2.19908 -2.68088 0
rtoes 14.9661 0 0
lowerback 9.19243 -3.077 -7.45731
upperback 4.94596 -4.48642 -4.42351
thorax 0.271187 -2.25228 -0.108103
lowerneck -3.69058 -11.7482 -2.64061
upperneck -1.62975 -15.6067 9.95799
head 1.24381 -7.78486 3.18689
lclavicle -6.6351e-14 -4.38478e-15 0
lhumerus -44.4903 -47.0317 103.286
lradius 59.8781 0 0
lwrist 18.9719 0 0
lhand 18.1511 12.5221 0
lfingers 7.12502 0 0
lthumb 42.8055 36.8088 0
rclavicle -6.6351e-14 -4.38478e-15 0
rhumerus -37.6533 31.1124 -78.9323
rradius 74.5012 0 0
rwrist -4.05967 0 0
rhand -15.6096 -15.8349 0
rfingers 7.12502 0 0
rthumb 10.5866 -765.48 0
307
root 9.09677 15.4778 -23.7053 19.8042 61.1341 24.101
lfemur -15.3622 17.4822 -18.5121
ltibia 51.8067 0 0
lfoot -20.5017 -27.7247 0
ltoes 63.1006 0 0
rfemur -52.6573 -14.4521 29.9732
rtibia 55.6172 0 0
rfoot 2.59895 -0.754138 0
rtoes 10.7726 0 0
lowerback 9.4127 -2.8728 -7.35553
upperback 4.96022 -4.22919 -4.43684
thorax 0.140915 -2.1202 -0.181319
lowerneck -3.83172 -11.6834 -2.18889
upperneck -2.20573 -15.4908 10.0602
head 1.04173 -7.73828 3.16342
lclavicle -6.1599e-14 -4.32561e-15 0
lhumerus -44.9685 -47.7756 103.652
lradius 59.7703 0 0
lwrist 18.9087 0 0
lhand 17.8381 12.1582 0
lfingers 7.12502 0 0
lthumb 42.5129 36.549 0
rclavicle -6.1599e-14 -4.32561e-15 0
rhumerus -33.4182 30.4819 -75.7965
rradius 73.9316 0 0
rwrist -6.28374 0 0
rhand -14.2773 -16.1594 0
rfingers 7.12502 0 0
rthumb 11.8728 -765.752 0
308
root 9.05727 15.4958 -23.676 18.5394 59.5439 22.3514
lfemur -15.5458 18.0296 -18.3444
ltibia 51.2611 0 0
lfoot -20.9594 -26.8709 0
ltoes 63.3898 0 0
rfemur -54.0629 -15.3815 30.1628
rtibia 56.4428 0 0
rfoot 2.99809 1.10702 0
rtoes 6.65246 0 0
lowerback 9.6134 -2.67264 -7.24562
upperback 4.96786 -3.97628 -4.44282
thorax 0.0147229 -1.99035 -0.251763
lowerneck -3.9725 -11.6166 -1.74538
upperneck -2.76996 -15.3727 10.153
head 0.843167 -7.69033 3.13798
lclavicle -5.68362e-14 -4.23408e-15 0
lhumerus -45.4421 -48.483 104.023
lradius 59.6618 0 0
lwrist 18.8484 0 0
lhand 17.5187 11.8043 0
lfingers 7.12502 0 0
lthumb 42.2141 36.3003 0
rclavicle -5.68362e-14 -4.23408e-15 0
rhumerus -29.2577 29.8325 -72.7242
rradius 73.3699 0 0
rwrist -8.43218 0 0
rhand -12.9267 -16.4493 0
rfingers 7.12502 0 0
rthumb 13.1759 -765.98 0
309
root 9.01776 15.5138 -23.6466 17.3069 57.9595 20.6313
lfemur -15.7194 18.5567 -18.1745
ltibia 50.7082 0 0
lfoot -21.3569 -25.9525 0
ltoes 63.5055 0 0
rfemur -55.4134 -16.2714 30.2956
rtibia 57.2537 0 0
rfoot 3.39018 2.86865 0
rtoes 2.66992 0 0
lowerback 9.7894 -2.47897 -7.12884
upperback 4.96861 -3.73068 -4.44074
thorax -0.104452 -1.8643 -0.318103
lowerneck -4.11088 -11.5482 -1.31581
upperneck -3.3147 -15.2537 10.2351
head 0.650784 -7.64139 3.11084
lclavicle -5.21466e-14 -4.11058e-15 0
lhumerus -45.9047 -49.143 104.394
lradius 59.5541 0 0
lwrist 18.7917 0 0
lhand 17.1945 11.4653 0
lfingers 7.12502 0 0
lthumb 41.9108 36.067 0
rclavicle -5.21466e-14 -4.11058e-15 0
rhumerus -25.2261 29.1771 -69.7554
rradius 72.8337 0 0
rwrist -10.4761 0 0
rhand -11.5661 -16.7014 0
rfingers 7.12502 0 0
rthumb 14.4877 -766.161 0
310
root 8.97825 15.5319 -23.6172 16.123 56.3941 18.9628
lfemur -15.8773 19.058 -18.0021
ltibia 50.1548 0 0
lfoot -21.684 -24.9688 0
ltoes 63.4168 0 0
rfemur -56.6858 -17.109 30.3652
rtibia 58.0318 0 0
rfoot 3.76887 4.49678 0
rtoes -1.11062 0 0
lowerback 9.93553 -2.29426 -7.00648
upperback 4.96222 -3.49539 -4.4299
thorax -0.213673 -1.74361 -0.379005
lowerneck -4.24477 -11.4788 -0.905914
upperneck -3.83225 -15.1347 10.3051
head 0.467225 -7.59188 3.08231
lclavicle -4.76142e-14 -3.95553e-15 0
lhumerus -46.3504 -49.7447 104.761
lradius 59.4485 0 0
lwrist 18.7394 0 0
lhand 16.8673 11.1463 0
lfingers 7.12502 0 0
lthumb 41.6045 35.8533 0
rclavicle -4.76142e-14 -3.95553e-15 0
rhumerus -21.3778 28.5287 -66.9301
rradius 72.3404 0 0
rwrist -12.3868 0 0
rhand -10.2038 -16.9125 0
rfingers 7.12502 0 0
rthumb 15.8002 -766.291 0
311
root 8.93875 15.5499 -23.5879 15.0039 54.861 17.3683
lfemur -16.0135 19.5281 -17.8272
ltibia 49.6079 0 0
lfoot -21.9307 -23.9188 0
ltoes 63.0925 0 0
rfemur -57.8571 -17.8817 30.3649
rtibia 58.759 0 0
rfoot 4.12783 5.95745 0
rtoes -4.62481 0 0
lowerback 10.0467 -2.12096 -6.87981
upperback 4.94843 -3.27339 -4.40961
thorax -0.310004 -1.62986 -0.433136
lowerneck -4.37211 -11.4089 -0.521411
upperneck -4.31489 -15.0169 10.3617
head 0.295136 -7.54219 3.0527
lclavicle -4.3323e-14 -3.76934e-15 0
lhumerus -46.7729 -50.277 105.119
lradius 59.3463 0 0
lwrist 18.6922 0 0
lhand 16.5389 10.8522 0
lfingers 7.12502 0 0
lthumb 41.2968 35.6632 0
rclavicle -4.3323e-14 -3.76934e-15 0
rhumerus -17.767 27.9001 -64.2881
rradius 71.9076 0 0
rwrist -14.1352 0 0
rhand -8.848 -17.0794 0
rfingers 7.12502 0 0
rthumb 17.1053 -766.366 0
312
root 8.89924 15.5679 -23.5585 13.9661 53.3736 15.8699
lfemur -16.1221 19.9614 -17.6497
ltibia 49.0743 0 0
lfoot -22.087 -22.8017 0
ltoes 62.5017 0 0
rfemur -58.9044 -18.5767 30.2882
rtibia 59.4173 0 0
rfoot 4.46073 7.21673 0
rtoes -7.80826 0 0
lowerback 10.1176 -1.96154 -6.75011
upperback 4.92698 -3.06769 -4.37917
thorax -0.390508 -1.5246 -0.479163
lowerneck -4.49083 -11.3389 -0.168032
upperneck -4.75492 -14.9014 10.4036
head 0.137164 -7.49272 3.02228
lclavicle -3.9357e-14 -3.55241e-15 0
lhumerus -47.166 -50.7291 105.465
lradius 59.2489 0 0
lwrist 18.6509 0 0
lhand 16.2109 10.5878 0
lfingers 7.12502 0 0
lthumb 40.9894 35.5012 0
rclavicle -3.9357e-14 -3.55241e-15 0
rhumerus -14.4481 27.3043 -61.8696
rradius 71.5529 0 0
rwrist -15.6925 0 0
rhand -7.50697 -17.1988 0
rfingers 7.12502 0 0
rthumb 18.3949 -766.381 0
313
root 8.85973 15.5859 -23.5291 13.026 51.9451 14.49
lfemur -16.1974 20.3524 -17.4695
ltibia 48.5609 0 0
lfoot -22.1428 -21.6166 0
ltoes 61.6132 0 0
rfemur -59.8048 -19.1815 30.1286
rtibia 59.9886 0 0
rfoot 4.76124 8.24063 0
rtoes -10.5966 0 0
lowerback 10.1433 -1.81846 -6.61866
upperback 4.89762 -2.88127 -4.33787
thorax -0.45225 -1.42941 -0.515753
lowerneck -4.59887 -11.2694 0.148496
upperneck -5.14462 -14.7893 10.4295
head -0.00404436 -7.44387 2.99137
lclavicle -3.58004e-14 -3.30514e-15 0
lhumerus -47.5237 -51.09 105.793
lradius 59.1576 0 0
lwrist 18.6163 0 0
lhand 15.8851 10.3583 0
lfingers 7.12502 0 0
lthumb 40.6837 35.3712 0
rclavicle -3.58004e-14 -3.30514e-15 0
rhumerus -11.4754 26.754 -59.7144
rradius 71.2937 0 0
rwrist -17.03 0 0
rhand -6.18895 -17.2676 0
rfingers 7.12502 0 0
rthumb 19.6609 -766.331 0
314
root 8.82022 15.604 -23.4997 12.1998 50.5888 13.2508
lfemur -16.2334 20.6957 -17.2864
ltibia 48.0746 0 0
lfoot -22.0881 -20.3629 0
ltoes 60.396 0 0
rfemur -60.5352 -19.6833 29.8796
rtibia 60.4548 0 0
rfoot 5.02302 8.99521 0
rtoes -12.9255 0 0
lowerback 10.1185 -1.69418 -6.48673
upperback 4.86009 -2.71714 -4.28503
thorax -0.492293 -1.34584 -0.541571
lowerneck -4.69416 -11.2008 0.422446
upperneck -5.47627 -14.6817 10.4379
head -0.125842 -7.39603 2.96025
lclavicle -3.2737e-14 -3.02795e-15 0
lhumerus -47.8396 -51.3487 106.1
lradius 59.0737 0 0
lwrist 18.5891 0 0
lhand 15.5633 10.1686 0
lfingers 7.12502 0 0
lthumb 40.3815 35.2776 0
rclavicle -3.2737e-14 -3.02795e-15 0
rhumerus -8.90307 26.2623 -57.8625
rradius 71.1475 0 0
rwrist -18.1186 0 0
rhand -4.90217 -17.2825 0
rfingers 7.12502 0 0
rthumb 20.8952 -766.213 0
315
root 8.78072 15.622 -23.4704 11.504 49.318 12.1744
lfemur -16.2244 20.9858 -17.1005
ltibia 47.6223 0 0
lfoot -21.9128 -19.0395 0
ltoes 58.8191 0 0
rfemur -61.0728 -20.0695 29.5345
rtibia 60.7978 0 0
rfoot 5.23973 9.44652 0
rtoes -14.7306 0 0
lowerback 10.038 -1.59115 -6.35561
upperback 4.81412 -2.57828 -4.21994
thorax -0.5077 -1.27547 -0.555287
lowerneck -4.77463 -11.1336 0.648089
upperneck -5.74216 -14.5797 10.4275
head -0.225583 -7.34961 2.92923
lclavicle -3.02509e-14 -2.72124e-15 0
lhumerus -48.1077 -51.4945 106.381
lradius 58.9987 0 0
lwrist 18.57 0 0
lhand 15.247 10.0235 0
lfingers 7.12502 0 0
lthumb 40.0842 35.2245 0
rclavicle -3.02509e-14 -2.72124e-15 0
rhumerus -6.78556 25.8421 -56.3539
rradius 71.132 0 0
rwrist -18.9297 0 0
rhand -3.65488 -17.2403 0
rfingers 7.12502 0 0
rthumb 22.0898 -766.023 0
316
root 8.74121 15.64 -23.441 10.9549 48.146 11.2832
lfemur -16.1644 21.2173 -16.9115
ltibia 47.211 0 0
lfoot -21.6068 -17.6456 0
ltoes 56.8514 0 0
rfemur -61.3946 -20.3273 29.0869
rtibia 60.9996 0 0
rfoot 5.40505 9.56059 0
rtoes -15.9475 0 0
lowerback 9.89686 -1.51185 -6.22656
upperback 4.75947 -2.46769 -4.14191
thorax -0.495535 -1.21986 -0.555565
lowerneck -4.83821 -11.0684 0.819699
upperneck -5.93458 -14.4845 10.3971
head -0.30062 -7.30501 2.8986
lclavicle -2.84262e-14 -2.38542e-15 0
lhumerus -48.3217 -51.5162 106.631
lradius 58.9338 0 0
lwrist 18.5599 0 0
lhand 14.9382 9.92808 0
lfingers 7.12502 0 0
lthumb 39.7935 35.2161 0
rclavicle -2.84262e-14 -2.38542e-15 0
rhumerus -5.17715 25.5061 -55.2285
rradius 71.2646 0 0
rwrist -19.4342 0 0
rhand -2.45532 -17.1378 0
rfingers 7.12502 0 0
rthumb 23.2366 -765.756 0
317
root 8.72416 15.656 -23.3237 10.5377 47.06 10.5468
lfemur -16.0493 21.3937 -16.7257
ltibia 46.7785 0 0
lfoot -21.14 -16.0679 0
ltoes 54.3282 0 0
rfemur -61.5257 -20.4539 28.4715
rtibia 61.0989 0 0
rfoot 5.55215 9.30682 0
rtoes -16.6235 0 0
lowerback 9.6806 -1.45707 -6.09231
upperback 4.6903 -2.38583 -4.04693
thorax -0.454322 -1.17924 -0.542676
lowerneck -4.88572 -11.0072 0.941084
upperneck -6.06257 -14.3983 10.3436
head -0.354576 -7.26345 2.86685
lclavicle -2.71527e-14 -1.98828e-15 0
lhumerus -48.4943 -51.416 106.873
lradius 58.8765 0 0
lwrist 18.5635 0 0
lhand 14.6375 9.88644 0
lfingers 7.12502 0 0
lthumb 39.5104 35.2581 0
rclavicle -2.71527e-14 -1.98828e-15 0
rhumerus -4.00985 25.2349 -54.4353
rradius 71.5442 0 0
rwrist -19.6216 0 0
rhand -1.19242 -16.917 0
rfingers 7.12502 0 0
rthumb 24.4416 -765.338 0
318
root 8.70711 15.6719 -23.2064 10.2209 46.0338 9.91418
lfemur -15.8829 21.5245 -16.5483
ltibia 46.2668 0 0
lfoot -20.5002 -14.2167 0
ltoes 51.155 0 0
rfemur -61.5136 -20.4623 27.6439
rtibia 61.1482 0 0
rfoot 5.71518 8.70147 0
rtoes -16.8735 0 0
lowerback 9.38401 -1.42449 -5.94548
upperback 4.60225 -2.32947 -3.93264
thorax -0.386404 -1.1519 -0.518435
lowerneck -4.92029 -10.9511 1.02216
upperneck -6.14261 -14.3215 10.2661
head -0.393525 -7.22545 2.83242
lclavicle -2.62413e-14 -1.50356e-15 0
lhumerus -48.6429 -51.2086 107.13
lradius 58.8231 0 0
lwrist 18.5837 0 0
lhand 14.3436 9.89593 0
lfingers 7.12502 0 0
lthumb 39.2336 35.3499 0
rclavicle -2.62413e-14 -1.50356e-15 0
rhumerus -3.16411 24.9972 -53.8854
rradius 71.9489 0 0
rwrist -19.5178 0 0
rhand 0.232563 -16.5352 0
rfingers 7.12502 0 0
rthumb 25.7992 -764.714 0
